<svg xmlns="http://www.w3.org/2000/svg" width="27" height="27" fill="none" viewBox="0 0 27 27">
  <path fill="none" fill-rule="evenodd" d="M9.76 24.464v-3.833c0-.975.836-1.768 1.873-1.774h3.797c1.042 0 1.887.794 1.887 1.774v3.845c0 .828.702 1.505 1.582 1.524h2.531c2.524 0 4.57-1.924 4.57-4.298V10.797c-.014-.933-.48-1.81-1.266-2.38l-8.658-6.56a4.359 4.359 0 0 0-5.19 0l-8.62 6.571C1.476 8.996 1.01 9.875 1 10.81v10.893C1 24.076 3.046 26 5.57 26H8.1c.902 0 1.633-.688 1.633-1.536" clip-rule="evenodd"/>
  <path stroke="#000" stroke-linecap="round" stroke-linejoin="round" stroke-width="2" d="M9.76 24.464v-3.833c0-.975.836-1.768 1.873-1.774h3.797c1.042 0 1.887.794 1.887 1.774v3.845c0 .828.702 1.505 1.582 1.524h2.531c2.524 0 4.57-1.924 4.57-4.298V10.797c-.014-.933-.48-1.81-1.266-2.38l-8.658-6.56a4.359 4.359 0 0 0-5.19 0l-8.62 6.571C1.476 8.996 1.01 9.875 1 10.81v10.893C1 24.076 3.046 26 5.57 26H8.1c.902 0 1.633-.688 1.633-1.536"/>
</svg>
