<svg xmlns="http://www.w3.org/2000/svg" width="20" height="17" fill="none" viewBox="0 0 20 17">
  <path stroke="#000" stroke-linecap="round" stroke-linejoin="round" stroke-width=".5" d="M10.063 16c-2.87 0-5.32-.442-5.32-2.213 0-1.771 2.434-3.313 5.32-3.313 2.87 0 5.32 1.528 5.32 3.298S12.949 16 10.064 16Zm0-8.05c1.883 0 3.41-1.556 3.41-3.475S11.947 1 10.064 1C8.179 1 6.652 2.556 6.652 4.475c-.005 1.912 1.51 3.468 3.387 3.474h.024Z" clip-rule="evenodd"/>
  <path stroke="#000" stroke-linecap="round" stroke-linejoin="round" stroke-width=".5" d="M15.724 6.994a2.61 2.61 0 0 0 1.904-2.529c0-1.264-.88-2.32-2.051-2.564m.661 7.939c1.554 0 2.882 1.074 2.882 2.033 0 .564-.459 1.178-1.153 1.345M4.403 6.994a2.61 2.61 0 0 1-1.905-2.529c0-1.264.88-2.32 2.051-2.564M3.887 9.84c-1.554 0-2.88 1.074-2.88 2.033 0 .564.457 1.178 1.153 1.345"/>
</svg>
