<svg xmlns="http://www.w3.org/2000/svg" width="32" height="35" fill="none" viewBox="0 0 32 35">
  <path stroke="#000" stroke-linecap="round" stroke-linejoin="round" stroke-width="1.5" d="M16 13.158c2.437 0 4.412 1.944 4.412 4.342 0 2.398-1.975 4.342-4.412 4.342s-4.412-1.944-4.412-4.342c0-2.398 1.975-4.342 4.412-4.342Z" clip-rule="evenodd"/>
  <path stroke="#000" stroke-linecap="round" stroke-linejoin="round" stroke-width="1.5" d="M30.414 9.25c-1.206-2.07-3.877-2.779-5.964-1.583-1.815 1.038-4.084-.26-4.084-2.338C20.366 2.939 18.41 1 16 1c-2.411 0-4.367 1.939-4.367 4.329 0 2.077-2.269 3.376-4.082 2.338C5.46 6.47 2.79 7.18 1.585 9.25a4.308 4.308 0 0 0 1.6 5.912c1.813 1.04 1.813 3.636 0 4.675a4.309 4.309 0 0 0-1.6 5.913c1.206 2.07 3.877 2.779 5.964 1.585h.002c1.813-1.04 4.082.259 4.082 2.337C11.633 32.062 13.59 34 16 34s4.366-1.939 4.366-4.328c0-2.078 2.269-3.377 4.084-2.337 2.088 1.194 4.758.485 5.964-1.585a4.308 4.308 0 0 0-1.597-5.913h-.002c-1.814-1.04-1.814-3.635.002-4.675a4.307 4.307 0 0 0 1.597-5.912Z" clip-rule="evenodd"/>
</svg>
